<svg xmlns="http://www.w3.org/2000/svg" viewBox="0 0 128 128">
  <defs>
    <linearGradient id="g" x1="16" x2="112" y1="14" y2="116" gradientUnits="userSpaceOnUse">
      <stop stop-color="#E91E63"/>
      <stop offset=".52" stop-color="#F04A80"/>
      <stop offset="1" stop-color="#FF7A1A"/>
    </linearGradient>
  </defs>
  <rect width="128" height="128" rx="34" fill="#111318"/>
  <path d="M67 13 101 32v39c0 22-14 37-37 44-23-7-37-22-37-44V32l40-19Z" fill="url(#g)"/>
  <circle cx="88" cy="37" r="6" fill="#fff"/>
  <path d="M43 83V41h30c10 0 17 6 17 15 0 6-3 10-8 13 6 2 10 7 10 14 0 10-8 16-19 16H43Zm17-26h11c4 0 7-2 7-6s-3-6-7-6H60v12Zm0 28h13c5 0 8-2 8-7s-3-7-8-7H60v14Z" fill="#fff"/>
</svg>
